<svg width="100" height="97" viewBox="0 0 100 97" fill="none" xmlns="http://www.w3.org/2000/svg">
<path d="M0 8.28049V2.36585H29.7619V8.28049C25.9524 8.28049 25.7936 10.6463 26.1905 11.8293L39.2857 40.2195C40.4762 37.065 43.3333 29.5732 45.2381 24.8415C47.1429 20.1098 42.8571 18.9268 40.4762 18.9268L42.8571 13.0122H72.619L70.2381 18.9268C63.5714 17.9805 61.1111 20.8984 60.7143 22.4756L47.619 57.9634L54.7619 73.3415C62.3016 55.5976 78.0952 18.6902 80.9524 13.0122C83.8095 7.33415 77.381 5.91463 73.8095 5.91463V0H98.8095V5.91463C93.0952 5.91463 89.2857 10.6463 88.0952 13.0122L57.1429 86.3537H45.2381L40.4762 76.8902L35.1433 91.0854H71.4286C85.7143 91.0854 92.4603 78.4675 94.0476 72.1585H100L88.0952 97H3.57143L5.95238 91.0854H9.52381C19.0476 91.0854 22.2222 87.9309 22.619 86.3537L33.3333 59.1463C27.381 46.9228 14.7619 21.0561 11.9048 15.378C9.04762 9.7 2.77778 8.28049 0 8.28049Z" fill="#E3E3E3"/>
</svg>
