<svg width="91" height="41" viewBox="0 0 91 41" fill="none" xmlns="http://www.w3.org/2000/svg">
<path d="M90.4978 8.99854H0V19.7815H90.4978V8.99854Z" fill="#929497"/>
<path fill-rule="evenodd" clip-rule="evenodd" d="M12.2804 25.584C10.9593 25.4959 10.0092 24.543 10.0092 22.9061V0.000244141H5.56238V22.9061C5.56238 26.9482 8.31985 29.6925 12.2804 29.7839V25.584Z" fill="#020202"/>
<path fill-rule="evenodd" clip-rule="evenodd" d="M14.9386 29.4084C15.2248 29.3138 15.4998 29.2018 15.7631 29.0735H12.2804V29.4084H14.9386ZM16.4396 28.6912C16.6003 28.5867 16.7553 28.4747 16.9043 28.3562H12.2804V28.6912H16.4396ZM17.3423 27.9739C17.4534 27.8662 17.5606 27.7547 17.6637 27.639H12.2804V27.9739H17.3423ZM17.9757 27.2567C18.0572 27.1475 18.1359 27.0365 18.2104 26.9217H12.2804V27.2567H17.9757ZM18.4414 26.5394C18.5023 26.4303 18.5599 26.3183 18.6152 26.204H12.2804V26.5394H18.4414ZM18.7843 25.8217C18.8283 25.7126 18.8705 25.6006 18.9094 25.4872H13.2548C13.0145 25.5561 12.7568 25.5912 12.4847 25.5912C12.4158 25.5912 12.3479 25.5889 12.2804 25.5847V25.8217H18.7843ZM19.0298 25.1049C19.0612 24.9949 19.0898 24.8829 19.116 24.77H14.3679C14.2639 24.8955 14.1482 25.007 14.0217 25.1049H19.0303H19.0298ZM19.1952 24.3877C19.2148 24.2776 19.2322 24.1656 19.2472 24.0527H14.7732C14.7305 24.1708 14.6809 24.2823 14.6242 24.3877H19.1952ZM19.2903 23.67C19.2996 23.5599 19.3071 23.4484 19.3123 23.335H14.9362C14.9231 23.4507 14.9053 23.5627 14.8823 23.67H19.2898H19.2903ZM19.3226 22.9528V22.6178H14.9596V22.9528H19.3226ZM19.3226 22.2355V21.9005H14.9596V22.2355H19.3226ZM19.3226 21.5183V21.1833H14.9596V21.5183H19.3226ZM19.3226 20.801V20.4661H14.9596V20.801H19.3226ZM19.3226 20.0838V19.7488H14.9596V20.0838H19.3226ZM19.3226 19.3665V19.0316H14.9596V19.3665H19.3226ZM19.3226 18.6493V18.3143H14.9596V18.6493H19.3226ZM19.3226 17.9316V17.5971H14.9596V17.9316H19.3226ZM19.3226 17.2148V16.8794H14.9596V17.2148H19.3226ZM19.3226 16.4976V16.1621H14.9596V16.4976H19.3226ZM19.3226 15.7799V15.4449H14.9596V15.7799H19.3226ZM19.3226 15.0626V14.7276H14.9596V15.0626H19.3226ZM19.3226 14.3454V14.0104H14.9596V14.3454H19.3226ZM19.3226 13.6281V13.2932H14.9596V13.6281H19.3226ZM19.3226 12.9109V12.5759H14.9596V12.9109H19.3226ZM19.3226 12.1932V11.8587H14.9596V12.1932H19.3226ZM19.3226 11.4764V11.1414H14.9596V11.4764H19.3226ZM19.3226 10.7591V10.4237H14.9596V10.7591H19.3226ZM19.3226 10.0414V9.70694H14.9596V10.0414H19.3226ZM19.3226 9.32466V8.98922H14.9596V9.32466H19.3226ZM19.3226 8.60694V8.27198H14.9596V8.60694H19.3226ZM19.3226 7.8897V7.55474H14.9596V7.8897H19.3226ZM19.3226 7.17246V6.8375H14.9596V7.17246H19.3226ZM19.3226 6.45522V6.12025H14.9596V6.45522H19.3226ZM19.3226 5.73797V5.40301H14.9596V5.73797H19.3226ZM19.3226 5.02073V4.68576H14.9596V5.02073H19.3226ZM19.3226 4.30301V3.96852H14.9596V4.30301H19.3226ZM19.3226 3.58624V3.25081H14.9596V3.58624H19.3226ZM19.3226 2.86853V2.53357H14.9596V2.86853H19.3226ZM19.3226 2.15129V1.81679H14.9596V2.15129H19.3226ZM19.3226 1.43451V1.09908H14.9596V1.43451H19.3226ZM19.3226 0.716801V0.381836H14.9596V0.716801H19.3226Z" fill="#020202"/>
<path d="M25.7919 0.000488281H21.3765V29.3667H25.7919V0.000488281Z" fill="#020202"/>
<path fill-rule="evenodd" clip-rule="evenodd" d="M35.9279 29.1984L35.8328 28.8635H31.2267L31.3162 29.1984H35.9279ZM35.7241 28.4812L35.629 28.1458H31.0361L31.1255 28.4812H35.7246H35.7241ZM35.5199 27.7635L35.4248 27.429H30.8444L30.9339 27.7635H35.5199ZM35.3161 27.0467L35.221 26.7113H30.6538L30.7433 27.0467H35.3166H35.3161ZM35.1123 26.329L35.0172 25.994H30.4626L30.5521 26.329H35.1123ZM34.908 25.6118L34.8134 25.2773H30.2715L30.361 25.6118H34.908ZM34.7047 24.895L34.6096 24.56H30.0804L30.1698 24.895H34.7052H34.7047ZM34.5005 24.1773L34.4049 23.8423H29.8887L29.9782 24.1773H34.5005ZM34.2967 23.46L34.2011 23.1251H29.6981L29.7876 23.46H34.2971H34.2967ZM34.0919 22.7428L33.9968 22.4078H29.5065L29.5959 22.7428H34.0919ZM33.8886 22.0255L33.7931 21.691H29.3158L29.4053 22.0255H33.8886ZM33.6844 21.3083L33.5888 20.9729H29.1247L29.2137 21.3083H33.6844ZM33.4806 20.5911L33.385 20.2556H28.933L29.0225 20.5911H33.4806ZM33.2768 19.8734L33.1812 19.5389H28.7428L28.8319 19.8734H33.2768ZM33.0725 19.1566L32.977 18.8216H28.5512L28.6407 19.1566H33.073H33.0725ZM32.8687 18.4389L32.7732 18.1039H28.3601L28.4496 18.4389H32.8687ZM32.6645 17.7216L32.5689 17.3867H28.169L28.2584 17.7216H32.6645ZM32.4607 17.0044L32.3651 16.6694H26.2027V17.0044H32.4607ZM32.2564 16.2871L32.2424 16.237C32.3895 16.1475 32.5319 16.052 32.6701 15.9522H26.2032V16.2871H32.2569H32.2564ZM33.1437 15.5699C33.2637 15.4626 33.3794 15.3511 33.49 15.2349H26.2023V15.5699H33.1433H33.1437ZM33.8249 14.8526C33.9121 14.744 33.9959 14.6325 34.076 14.5177H26.2023V14.8526H33.8244H33.8249ZM34.3224 14.1354C34.3866 14.0262 34.4489 13.9143 34.5075 13.8004H26.2032V14.1354H34.3229H34.3224ZM34.6883 13.4182C34.7361 13.3085 34.7806 13.1966 34.8232 13.0832H26.2027V13.4182H34.6883ZM34.9535 12.7004C34.9872 12.5908 35.0191 12.4789 35.0481 12.3655H30.1033C29.9679 12.4948 29.8157 12.6072 29.6461 12.7004H34.9535ZM35.1357 11.9832C35.1582 11.8731 35.1784 11.7616 35.1962 11.6482H30.6032C30.5502 11.7668 30.4898 11.8787 30.4214 11.9832H35.1357ZM35.2482 11.2664C35.2608 11.1559 35.2716 11.0439 35.28 10.931H30.8121C30.7934 11.0472 30.769 11.1587 30.7395 11.2664H35.2486H35.2482ZM35.3002 10.5487C35.3034 10.4466 35.3048 10.3435 35.3048 10.2386V10.2142H30.858V10.3234C30.858 10.3997 30.8557 10.4756 30.8519 10.5492H35.3002V10.5487ZM35.3048 9.83147V9.49651H30.858V9.83147H35.3048ZM35.3048 9.11423V8.77926H30.858V9.11423H35.3048ZM35.3048 8.39698V8.06202H30.858V8.39698H35.3048ZM35.3048 7.67974V7.34431H30.858V7.67974H35.3048ZM35.3044 6.96203C35.3039 6.85006 35.3016 6.73809 35.2973 6.62753H30.8473C30.8538 6.72404 30.858 6.82289 30.858 6.92502V6.96203H35.3044ZM35.2739 6.24525C35.2646 6.13235 35.2533 6.02085 35.2397 5.91029H30.7189C30.7512 6.01757 30.7779 6.12907 30.799 6.24525H35.2735H35.2739ZM35.1854 5.52801C35.1662 5.41464 35.1446 5.30361 35.1217 5.19304H30.3727C30.4467 5.29752 30.5123 5.40901 30.5704 5.52801H35.1854ZM35.0308 4.8103C35.0003 4.69693 34.968 4.5859 34.9329 4.47534H29.5065C29.6985 4.56622 29.8709 4.67819 30.0246 4.8103H35.0303H35.0308ZM34.7989 4.09305C34.7558 3.97968 34.7099 3.86818 34.6612 3.75809H26.2027V4.09305H34.7989ZM34.4756 3.37581C34.4157 3.26197 34.3524 3.15047 34.2864 3.04085H26.2027V3.37581H34.4761H34.4756ZM34.0357 2.65857C33.9537 2.54332 33.8675 2.43229 33.7781 2.3236H26.2027V2.65857H34.0357ZM33.4351 1.94133C33.3213 1.82467 33.2023 1.71318 33.0791 1.60636H26.2032V1.94133H33.4356H33.4351ZM32.5858 1.22408C32.4139 1.10415 32.2349 0.99265 32.0484 0.889115H26.2032V1.22408H32.5858ZM31.2277 0.50684C30.8632 0.366764 30.4767 0.254796 30.0715 0.171875H26.2032V0.50684H31.2277Z" fill="#020202"/>
<path d="M42.0149 0.000488281H37.6416V29.3667H42.0149V0.000488281Z" fill="#020202"/>
<path fill-rule="evenodd" clip-rule="evenodd" d="M48.7558 14.1339C48.9343 14.0295 49.1062 13.918 49.2692 13.799H42.3432V14.1339H48.7558ZM49.7415 13.4167C49.8595 13.3094 49.9734 13.1974 50.0811 13.0817H42.3432V13.4167H49.7415ZM50.4053 12.699C50.4887 12.5903 50.5679 12.4793 50.6428 12.364H42.3432V12.699H50.4053ZM50.8714 11.9817C50.9309 11.8726 50.9872 11.7611 51.0392 11.6468H46.1332C45.9304 11.7873 45.698 11.8983 45.4366 11.9817H50.8714ZM51.1998 11.265C51.2415 11.1549 51.28 11.0434 51.316 10.9295H46.7905C46.7212 11.0504 46.6434 11.1619 46.5563 11.265H51.1998ZM51.4242 10.5472C51.4514 10.4376 51.4767 10.3257 51.4992 10.2123H47.0739C47.0444 10.3294 47.0098 10.4409 46.9695 10.5472H51.4242ZM51.5648 9.83001C51.5807 9.72039 51.5952 9.60842 51.6065 9.49504H47.1882C47.1789 9.61076 47.1662 9.72179 47.1498 9.83001H51.5648ZM51.6369 9.11276C51.6435 9.00267 51.6487 8.8907 51.6515 8.7778H47.2065V9.11276H51.6374H51.6369ZM51.6533 8.39552V8.06056H47.2061V8.39552H51.6533ZM51.6533 7.67828V7.34284H47.2061V7.67828H51.6533ZM51.6529 6.96057C51.6519 6.8486 51.6496 6.73663 51.6458 6.62607H47.1957C47.2023 6.72258 47.2061 6.82143 47.2061 6.92356V6.96057H51.6529ZM51.6224 6.24379C51.613 6.13089 51.6018 6.01939 51.5887 5.90883H47.0674C47.1002 6.01611 47.1269 6.12761 47.1475 6.24379H51.6224ZM51.5334 5.52654C51.5147 5.41317 51.4931 5.30215 51.4697 5.19159H46.7212C46.7952 5.29606 46.8612 5.40755 46.9189 5.52654H51.5334ZM51.3788 4.80883C51.3484 4.69546 51.3165 4.58443 51.2814 4.47387H45.8554C46.047 4.56476 46.2199 4.67672 46.3736 4.80883H51.3793H51.3788ZM51.1474 4.09159C51.1043 3.97822 51.0574 3.86672 51.0096 3.75663H42.3428V4.09159H51.1474ZM50.8241 3.37435C50.7642 3.26051 50.7009 3.14901 50.6349 3.03938H42.3423V3.37435H50.8241ZM50.3842 2.6571C50.3018 2.54186 50.216 2.43083 50.1266 2.32214H42.3428V2.6571H50.3842ZM49.7832 1.93986C49.6698 1.82321 49.5508 1.71171 49.4271 1.6049H42.3428V1.93986H49.7832ZM48.9347 1.22262C48.7623 1.10268 48.5834 0.99119 48.3969 0.887656H42.3432V1.22262H48.9347ZM47.5757 0.505375C47.2112 0.365299 46.8252 0.253331 46.4199 0.17041H42.3428V0.505375H47.5757ZM42.3428 14.5181V14.8531H49.7832C49.6286 14.7345 49.466 14.6226 49.2969 14.5181H42.3428ZM42.3428 15.2353V15.5703H50.5529C50.4503 15.4541 50.3425 15.3426 50.2306 15.2353H42.3428ZM42.3428 15.9526V16.2875H51.0869C51.0148 16.1723 50.9394 16.0613 50.8607 15.9526H42.3428ZM46.1323 16.6698C46.3333 16.7607 46.5132 16.8722 46.6715 17.0048H51.4636C51.4135 16.8905 51.3601 16.7794 51.3043 16.6698H46.1328H46.1323ZM47.0294 17.3871C47.1049 17.4906 47.1723 17.6026 47.2323 17.722H51.7245C51.6908 17.6082 51.6543 17.4972 51.6154 17.3871H47.0294ZM47.3892 18.1043C47.4239 18.2111 47.4539 18.3226 47.4796 18.4393H51.8969C51.8759 18.3259 51.8524 18.2144 51.8267 18.1043H47.3892ZM47.5438 18.8216C47.5574 18.9298 47.5672 19.0417 47.5738 19.1565H51.9949C51.9845 19.0431 51.9724 18.9316 51.9574 18.8216H47.5438ZM47.5836 19.5393V19.8738H52.03C52.0286 19.7609 52.0262 19.6494 52.0206 19.5393H47.5836ZM47.5836 20.256V20.5915H52.0309V20.256H47.5836ZM47.5836 20.9733V21.3087H52.0309V20.9733H47.5836ZM47.5836 21.691V22.0255H52.0309V21.691H47.5836ZM47.5836 22.4082V22.4457C47.5836 22.5469 47.5804 22.6462 47.5733 22.7432H52.0234C52.0272 22.6326 52.0295 22.5207 52.0305 22.4082H47.5836ZM47.5251 23.1255C47.504 23.2417 47.4773 23.3532 47.445 23.4604H51.9663C51.9799 23.3499 51.9906 23.2384 52 23.1255H47.5251ZM47.2965 23.8427C47.2388 23.9617 47.1723 24.0737 47.0983 24.1777H51.8473C51.8707 24.0681 51.8923 23.9561 51.911 23.8427H47.2965ZM46.7507 24.56C46.5975 24.6925 46.4246 24.8045 46.2325 24.8949H51.6594C51.6941 24.7853 51.7269 24.6733 51.7573 24.56H46.7512H46.7507ZM42.3428 25.2777V25.6122H51.3868C51.4355 25.5026 51.4819 25.3911 51.525 25.2777H42.3428ZM42.3428 25.9945V26.3294H51.0129C51.079 26.2203 51.1422 26.1088 51.2022 25.9945H42.3428ZM42.3428 26.7117V27.0471H50.5042C50.5936 26.9384 50.6798 26.8269 50.7618 26.7117H42.3428ZM42.3428 27.4294V27.7639H49.8042C49.9279 27.6571 50.0464 27.5456 50.1603 27.4294H42.3423H42.3428ZM42.3428 28.1462V28.4816H48.7741C48.96 28.3781 49.1399 28.2666 49.3119 28.1462H42.3428ZM42.3428 28.8639V29.1989H46.7975C47.2023 29.1164 47.5883 29.0044 47.9533 28.8639H42.3428Z" fill="#020202"/>
<path fill-rule="evenodd" clip-rule="evenodd" d="M59.6058 0.000488281L55.0784 29.3667H55.4171L59.9445 0.000488281H59.6058ZM58.8806 0.000488281H59.2188L54.691 29.3667H54.3532L58.8806 0.000488281ZM58.1544 0.000488281H58.4936L53.9658 29.3667H53.6266L58.1544 0.000488281ZM57.4292 0.000488281H57.7675L53.2401 29.3667H52.9014L57.4292 0.000488281ZM55.8045 29.3667L60.3329 0.000488281H60.6716L56.1433 29.3667H55.8045ZM56.5307 29.3667L61.06 0.000488281H61.3312C60.5549 5.18516 59.0249 15.2158 58.7208 17.3333L56.8694 29.3667H56.5307Z" fill="#020202"/>
<path fill-rule="evenodd" clip-rule="evenodd" d="M63.6821 29.367H68.2132L63.3462 0.000732422H61.6648L61.6578 0.0494562C61.2821 2.5577 60.8965 5.06594 60.5133 7.57466L62.1295 18.5853H59.0249L58.3667 22.8645H62.717L63.6816 29.367H63.6821Z" fill="#020202"/>
<path fill-rule="evenodd" clip-rule="evenodd" d="M80.5938 0.168457V0.503422H84.9347V0.168457H80.5938ZM80.5938 0.885703V1.22067H84.9347V0.885703H80.5938ZM80.5938 1.60294V1.93791H84.9347V1.60294H80.5938ZM80.5938 2.32019V2.65515H84.9347V2.32019H80.5938ZM80.5938 3.03744V3.3724H84.9347V3.03744H80.5938ZM80.5938 3.75468V4.08964H84.9347V3.75468H80.5938ZM80.5938 4.47192V4.80688H84.9347V4.47192H80.5938ZM80.5938 5.18916V5.52413H84.9347V5.18916H80.5938ZM80.5938 5.90688V6.24184H84.9347V5.90688H80.5938ZM80.5938 6.62412V6.95861H84.9347V6.62412H80.5938ZM80.5938 7.3409V7.67632H84.9347V7.3409H80.5938ZM80.5938 8.05861V8.39357H84.9347V8.05861H80.5938ZM80.5938 8.77585V9.11081H84.9347V8.77585H80.5938ZM80.5938 9.49309V9.82806H84.9347V9.49309H80.5938ZM80.5938 10.2103V10.5453H84.9347V10.2103H80.5938ZM80.5938 10.9276V11.263H84.9347V10.9276H80.5938ZM80.5938 11.6448V11.9798H84.9347V11.6448H80.5938ZM80.5938 12.3621V12.697H84.9347V12.3621H80.5938ZM80.5938 13.0793V13.4143H84.9347V13.0793H80.5938ZM80.5938 13.797V14.132H84.9347V13.797H80.5938ZM80.5938 14.5143V14.8492H84.9347V14.5143H80.5938ZM80.5938 15.2315V15.5665H84.9347V15.2315H80.5938ZM80.5938 15.9488V16.2837H84.9347V15.9488H80.5938ZM80.5938 16.666V17.001H84.9347V16.666H80.5938ZM80.5938 17.3832V17.7182H84.9347V17.3832H80.5938ZM80.5938 18.1005V18.4354H84.9347V18.1005H80.5938ZM80.5938 18.8177V19.1527H84.9347V18.8177H80.5938ZM80.5938 19.5354V19.8699H84.9347V19.5354H80.5938ZM80.5938 20.2522V20.5876H84.9347V20.2522H80.5938ZM80.5938 20.9695V21.3049H84.9347V20.9695H80.5938ZM80.5938 21.6872V22.0217H84.9347V21.6872H80.5938ZM80.5938 22.4044V22.7394H84.9347V22.4044H80.5938ZM80.5938 23.1217V23.4566H84.9347V23.1217H80.5938ZM80.5938 23.8389V24.1739H84.9347V23.8389H80.5938ZM80.5938 24.5561V24.8911H84.9347V24.5561H80.5938ZM80.5938 25.2739V25.6083H84.9347V25.2739H80.5938ZM80.5938 25.9906V26.3256H84.9347V25.9906H80.5938ZM80.5938 26.7079V27.0433H84.9347V26.7079H80.5938ZM80.5938 27.4256V27.7601H84.9347V27.4256H80.5938ZM80.5938 28.1424V28.4778H84.9347V28.1424H80.5938ZM80.5938 28.8601V29.195H84.9347V28.8601H80.5938Z" fill="#020202"/>
<path fill-rule="evenodd" clip-rule="evenodd" d="M80.5258 18.6479L74.6979 0.000488281H69.9995V29.3672H74.3625V9.64931L80.0269 29.3672H80.5258V18.6479Z" fill="#020202"/>
<path d="M8.36206 36.71C8.52808 36.8037 8.69604 36.8887 8.86597 36.9648C9.03784 37.0391 9.21558 37.1025 9.39917 37.1553C9.58276 37.2061 9.77515 37.2451 9.97632 37.2725C10.1794 37.2998 10.3953 37.3135 10.6238 37.3135C10.8992 37.3135 11.1335 37.2959 11.3269 37.2607C11.5203 37.2236 11.6775 37.1738 11.7986 37.1113C11.9216 37.0469 12.0105 36.9707 12.0652 36.8828C12.1218 36.7949 12.1501 36.6992 12.1501 36.5957C12.1501 36.4297 12.0808 36.2988 11.9421 36.2031C11.8035 36.1055 11.5896 36.0566 11.3005 36.0566C11.1736 36.0566 11.0398 36.0654 10.8992 36.083C10.7585 36.0986 10.616 36.1162 10.4714 36.1357C10.3289 36.1553 10.1873 36.1738 10.0466 36.1914C9.90796 36.207 9.7771 36.2148 9.65405 36.2148C9.44897 36.2148 9.25171 36.1885 9.06226 36.1357C8.87476 36.083 8.70776 36.0039 8.56128 35.8984C8.41675 35.793 8.30151 35.6611 8.21558 35.5029C8.12964 35.3447 8.08667 35.1602 8.08667 34.9492C8.08667 34.8242 8.10327 34.7002 8.13647 34.5771C8.17163 34.4541 8.22632 34.3369 8.30054 34.2256C8.37671 34.1123 8.47437 34.0078 8.59351 33.9121C8.71265 33.8145 8.8562 33.7305 9.02417 33.6602C9.19409 33.5898 9.3894 33.5352 9.61011 33.4961C9.83276 33.4551 10.0857 33.4346 10.3689 33.4346C10.574 33.4346 10.78 33.4463 10.9871 33.4697C11.1941 33.4912 11.3953 33.5225 11.5906 33.5635C11.7878 33.6045 11.9773 33.6543 12.1589 33.7129C12.3406 33.7695 12.5095 33.833 12.6658 33.9033L12.2585 34.6533C12.1296 34.5967 11.991 34.5449 11.8425 34.498C11.6941 34.4492 11.5388 34.4072 11.3767 34.3721C11.2146 34.3369 11.0466 34.3096 10.8728 34.29C10.7009 34.2686 10.5251 34.2578 10.3455 34.2578C10.0896 34.2578 9.87866 34.2764 9.71265 34.3135C9.54858 34.3506 9.41772 34.3984 9.32007 34.457C9.22241 34.5137 9.15405 34.5781 9.11499 34.6504C9.07788 34.7207 9.05933 34.791 9.05933 34.8613C9.05933 34.998 9.12085 35.1104 9.2439 35.1982C9.36694 35.2842 9.55444 35.3271 9.8064 35.3271C9.90796 35.3271 10.0242 35.3203 10.155 35.3066C10.2878 35.291 10.4265 35.2744 10.571 35.2568C10.7175 35.2393 10.866 35.2236 11.0164 35.21C11.1687 35.1943 11.3162 35.1865 11.4587 35.1865C11.7283 35.1865 11.9666 35.2168 12.1736 35.2773C12.3826 35.3379 12.5574 35.4248 12.698 35.5381C12.8386 35.6494 12.9451 35.7852 13.0173 35.9453C13.0896 36.1035 13.1257 36.2812 13.1257 36.4785C13.1257 36.7422 13.0642 36.9775 12.9412 37.1846C12.8201 37.3896 12.6462 37.5635 12.4197 37.7061C12.1951 37.8467 11.9236 37.9541 11.6052 38.0283C11.2869 38.1006 10.9324 38.1367 10.5417 38.1367C10.2839 38.1367 10.032 38.1201 9.78589 38.0869C9.53979 38.0557 9.30347 38.0107 9.0769 37.9521C8.85229 37.8916 8.63745 37.8203 8.43237 37.7383C8.22925 37.6543 8.04077 37.5625 7.86694 37.4629L8.36206 36.71ZM27.4981 34.3076H25.8076V33.4932H30.1172V34.3076H28.4268V38.0723H27.4981V34.3076ZM42.8109 35.7695C42.8109 35.4238 42.8743 35.1074 43.0013 34.8203C43.1282 34.5332 43.306 34.2871 43.5345 34.082C43.765 33.875 44.0403 33.7148 44.3607 33.6016C44.6829 33.4883 45.0394 33.4316 45.43 33.4316C45.8187 33.4316 46.1741 33.4883 46.4964 33.6016C46.8187 33.7148 47.0941 33.875 47.3226 34.082C47.553 34.2871 47.7318 34.5332 47.8587 34.8203C47.9857 35.1074 48.0491 35.4238 48.0491 35.7695C48.0491 36.1172 47.9857 36.4365 47.8587 36.7275C47.7318 37.0166 47.553 37.2656 47.3226 37.4746C47.0941 37.6836 46.8187 37.8467 46.4964 37.9639C46.1741 38.0791 45.8187 38.1367 45.43 38.1367C45.0394 38.1367 44.6829 38.0791 44.3607 37.9639C44.0403 37.8467 43.765 37.6836 43.5345 37.4746C43.306 37.2656 43.1282 37.0166 43.0013 36.7275C42.8743 36.4365 42.8109 36.1172 42.8109 35.7695ZM43.7396 35.7695C43.7396 36.0059 43.7816 36.2188 43.8655 36.4082C43.9515 36.5977 44.0696 36.7598 44.22 36.8945C44.3724 37.0273 44.5511 37.1299 44.7562 37.2021C44.9632 37.2744 45.1878 37.3105 45.43 37.3105C45.6722 37.3105 45.8958 37.2744 46.1009 37.2021C46.3079 37.1299 46.4866 37.0273 46.637 36.8945C46.7874 36.7598 46.9056 36.5977 46.9915 36.4082C47.0775 36.2188 47.1204 36.0059 47.1204 35.7695C47.1204 35.5332 47.0775 35.3213 46.9915 35.1338C46.9056 34.9463 46.7874 34.7881 46.637 34.6592C46.4866 34.5283 46.3079 34.4287 46.1009 34.3604C45.8958 34.292 45.6722 34.2578 45.43 34.2578C45.1878 34.2578 44.9632 34.292 44.7562 34.3604C44.5511 34.4287 44.3724 34.5283 44.22 34.6592C44.0696 34.7881 43.9515 34.9463 43.8655 35.1338C43.7816 35.3213 43.7396 35.5332 43.7396 35.7695ZM61.0504 33.4932H63.3795C63.731 33.4932 64.0357 33.5303 64.2935 33.6045C64.5514 33.6768 64.7652 33.7822 64.9351 33.9209C65.1051 34.0596 65.231 34.2285 65.3131 34.4277C65.3971 34.627 65.4391 34.8525 65.4391 35.1045C65.4391 35.2744 65.4185 35.4365 65.3775 35.5908C65.3365 35.7432 65.273 35.8838 65.1871 36.0127C65.1031 36.1416 64.9967 36.2568 64.8678 36.3584C64.7389 36.458 64.5875 36.541 64.4137 36.6074L65.4098 38.0723H64.273L63.4117 36.7715H63.3853L61.9791 36.7686V38.0723H61.0504V33.4932ZM63.4029 35.9658C63.5787 35.9658 63.732 35.9453 63.8629 35.9043C63.9957 35.8633 64.106 35.8057 64.1939 35.7314C64.2838 35.6572 64.3502 35.5674 64.3932 35.4619C64.4381 35.3545 64.4605 35.2354 64.4605 35.1045C64.4605 34.8486 64.3726 34.6514 64.1969 34.5127C64.0211 34.3721 63.7564 34.3018 63.4029 34.3018H61.9791V35.9658H63.4029ZM78.5106 33.4932H82.41V34.3076H79.4393V35.2217H82.0702V35.9863H79.4393V37.2607H82.4716V38.0723H78.5106V33.4932Z" fill="black"/>
</svg>
